<svg width="122" height="34" viewBox="0 0 122 34" fill="none" xmlns="http://www.w3.org/2000/svg">
<rect x="0.5" y="0.5" width="33" height="33" rx="9.5" stroke="#DBDBDB"/>
<path d="M17 22.25C14.0162 22.25 11.5137 19.7562 10.1662 17.42C10.0175 17.1575 10.0175 16.8338 10.1662 16.5712C11.5137 14.2438 14.0162 11.75 17 11.75C19.9838 11.75 22.4862 14.2437 23.8338 16.58C23.9825 16.8425 23.9825 17.1662 23.8338 17.4288C22.495 19.765 19.9925 22.2587 17.0087 22.2587L17 22.25ZM10.9363 17C12.1 19.0212 14.3925 21.375 17 21.375C19.6075 21.375 21.9087 19.0125 23.0725 16.9825C21.9087 14.9875 19.6163 12.625 17 12.625C14.3837 12.625 12.1 14.9787 10.9363 17Z" fill="#717274"/>
<path d="M17 19.1875C15.7925 19.1875 14.8125 18.2075 14.8125 17C14.8125 15.7925 15.7925 14.8125 17 14.8125C18.2075 14.8125 19.1875 15.7925 19.1875 17C19.1875 18.2075 18.2075 19.1875 17 19.1875ZM17 15.6875C16.2738 15.6875 15.6875 16.2738 15.6875 17C15.6875 17.7262 16.2738 18.3125 17 18.3125C17.7262 18.3125 18.3125 17.7262 18.3125 17C18.3125 16.2738 17.7262 15.6875 17 15.6875Z" fill="#717274"/>
<rect x="44.5" y="0.5" width="33" height="33" rx="9.5" stroke="#DBDBDB"/>
<path d="M64.0625 21.375H57.9375C56.0037 21.375 54.4375 19.8088 54.4375 17.875V17.4375C54.4375 15.7488 55.8113 14.375 57.5 14.375C57.745 14.375 57.9375 14.5675 57.9375 14.8125C57.9375 15.0575 57.745 15.25 57.5 15.25C56.2925 15.25 55.3125 16.23 55.3125 17.4375V17.875C55.3125 19.3187 56.4938 20.5 57.9375 20.5H64.0625C65.5063 20.5 66.6875 19.3187 66.6875 17.875C66.6875 16.4313 65.5063 15.25 64.0625 15.25H62.1375C61.8925 15.25 61.7 15.0575 61.7 14.8125C61.7 14.5675 61.8925 14.375 62.1375 14.375H64.0625C65.9963 14.375 67.5625 15.9412 67.5625 17.875C67.5625 19.8088 65.9963 21.375 64.0625 21.375Z" fill="#717274"/>
<path d="M63.1875 17C63.0912 17 62.995 16.965 62.9162 16.9037L60.7288 15.1537C60.6238 15.0662 60.5625 14.9437 60.5625 14.8125C60.5625 14.6812 60.6238 14.55 60.7288 14.4712L62.9162 12.7212C63.1087 12.5725 63.38 12.5987 63.5288 12.7912C63.6775 12.9837 63.6513 13.255 63.4588 13.4037L61.7 14.8125L63.4588 16.2212C63.6513 16.37 63.6775 16.65 63.5288 16.8337C63.4413 16.9387 63.3187 17 63.1875 17Z" fill="#717274"/>
<rect x="88.5" y="0.5" width="33" height="33" rx="9.5" stroke="#DBDBDB"/>
<g clip-path="url(#clip0_1_2475)">
<path d="M103.25 20.9375C103.005 20.9375 102.812 20.745 102.812 20.5V15.25C102.812 15.005 103.005 14.8125 103.25 14.8125C103.495 14.8125 103.688 15.005 103.688 15.25V20.5C103.688 20.745 103.495 20.9375 103.25 20.9375Z" fill="#717274"/>
<path d="M106.75 20.9375C106.505 20.9375 106.312 20.745 106.312 20.5V15.25C106.312 15.005 106.505 14.8125 106.75 14.8125C106.995 14.8125 107.188 15.005 107.188 15.25V20.5C107.188 20.745 106.995 20.9375 106.75 20.9375Z" fill="#717274"/>
<path d="M107.625 12.625H102.375V11.3125C102.375 10.5863 102.961 10 103.688 10H106.312C107.039 10 107.625 10.5863 107.625 11.3125V12.625ZM103.25 11.75H106.75V11.3125C106.75 11.0675 106.557 10.875 106.312 10.875H103.688C103.442 10.875 103.25 11.0675 103.25 11.3125V11.75Z" fill="#717274"/>
<path d="M108.062 24H101.938C100.975 24 100.188 23.2125 100.188 22.25V12.625C100.188 12.38 100.38 12.1875 100.625 12.1875C100.87 12.1875 101.062 12.38 101.062 12.625V22.25C101.062 22.7312 101.456 23.125 101.938 23.125H108.062C108.544 23.125 108.938 22.7312 108.938 22.25V12.625C108.938 12.38 109.13 12.1875 109.375 12.1875C109.62 12.1875 109.812 12.38 109.812 12.625V22.25C109.812 23.2125 109.025 24 108.062 24Z" fill="#717274"/>
<path d="M110.688 12.625H99.3125C99.0675 12.625 98.875 12.4325 98.875 12.1875C98.875 11.9425 99.0675 11.75 99.3125 11.75H110.688C110.932 11.75 111.125 11.9425 111.125 12.1875C111.125 12.4325 110.932 12.625 110.688 12.625Z" fill="#717274"/>
</g>
<defs>
<clipPath id="clip0_1_2475">
<rect width="14" height="14" fill="white" transform="translate(98 10)"/>
</clipPath>
</defs>
</svg>
